PathFileType	4	(X/Y/Z)	D:\TRACE\spot_10-12-23\spot_arm_motion_1_5-platform.trc
DataRate	CameraRate	NumFrames	NumMarkers	Units	OrigDataRate	OrigDataStartFrame	OrigNumFrames
100.00	100.00	      42	5	mm	100.00	1751	      7000
Frame#	Time	Left_Front			Right_Front			Left_Aft			Right_Aft			Post			
		X1	Y1	Z1	X2	Y2	Z2	X3	Y3	Z3	X4	Y4	Z4	X5	Y5	Z5	

1751	17.500	-800.88153	-13.28013	-645.81122	771.72284	-8.40027	-639.03040	-718.00690	18.31787	491.67841	699.50269	25.18310	577.69116	-17.96119	715.46436	-985.01422	
1752	17.510	-800.14441	-13.53926	-645.96655	772.48450	-8.80036	-639.03320	-717.32068	18.46732	491.49734	700.36536	25.52123	577.55402	-16.99498	714.82922	-985.61798	
1753	17.520	-799.55084	-13.69139	-646.02502	773.52753	-9.14925	-639.17621	-716.31232	18.82211	491.50296	700.85828	25.78335	577.45068	-16.09480	714.20331	-985.94659	
1754	17.530	-798.49402	-14.25683	-646.13904	774.39520	-9.52273	-639.24426	-715.49310	18.86890	491.54752	702.00098	26.19583	577.31183	-15.09227	713.69055	-986.33575	
1755	17.540	-797.44708	-14.79459	-646.10876	774.94080	-9.83434	-639.26178	-714.64728	19.08912	491.56339	702.97675	26.49661	577.25909	-14.19659	713.16077	-986.69189	
1756	17.550	-796.66809	-15.09371	-646.08313	776.00757	-10.18916	-639.35620	-713.57544	19.26670	491.41635	703.78888	26.72733	577.00745	-13.37804	712.47131	-987.12469	
1757	17.560	-795.72565	-15.26027	-646.31293	777.16779	-10.45300	-639.26129	-712.79266	19.50885	491.34003	704.49091	26.86805	576.89221	-12.37336	712.02148	-987.59882	
1758	17.570	-794.69019	-15.83456	-646.48688	777.73938	-10.74987	-639.28375	-711.89801	19.73951	491.13803	705.45001	27.14948	576.87103	-11.75389	711.63019	-987.98621	
1759	17.580	-794.03601	-15.84413	-646.45966	778.60406	-11.20004	-639.54993	-710.90155	19.85852	491.11441	706.42908	27.41101	576.94073	-10.94466	711.22949	-988.48889	
1760	17.590	-793.26117	-16.09671	-646.40356	779.63452	-11.55903	-639.60516	-710.12433	20.27972	491.01321	707.35010	27.73405	576.80890	-10.01576	710.68390	-988.91986	
1761	17.600	-792.06848	-16.64848	-646.73865	780.54138	-11.80761	-639.43121	-709.35101	20.60166	490.88855	708.21405	27.99174	576.51788	-9.09504	710.07288	-989.33759	
1762	17.610	-791.27972	-16.76764	-646.67297	781.36774	-12.06535	-639.64819	-708.33533	20.73165	490.57523	709.30188	28.31262	576.56189	-8.05549	709.82990	-989.73425	
1763	17.620	-790.03345	-17.32248	-646.68115	782.37604	-12.35871	-639.75934	-707.24988	20.88941	490.51474	710.09985	28.44291	576.56335	-7.13359	709.49487	-989.95874	
1764	17.630	-789.48352	-17.35703	-646.63776	783.30273	-12.57535	-639.71167	-706.36322	21.17583	490.57733	710.85614	28.63174	576.36249	-6.08866	708.98663	-990.30090	
1765	17.640	-788.36719	-17.58554	-646.89484	784.24237	-12.92462	-640.03021	-705.49438	21.20822	490.43991	712.08838	28.88452	576.30640	-5.04775	708.42694	-990.68585	
1766	17.650	-787.46545	-17.81563	-647.00073	784.78400	-13.18884	-640.11230	-704.47552	21.44584	490.42874	713.05542	29.14116	576.36560	-4.21468	708.04315	-990.96411	
1767	17.660	-786.46466	-18.12073	-646.94720	786.13324	-13.42797	-640.01868	-703.78033	21.46595	490.36243	713.77625	29.43447	576.29205	-3.31842	707.79871	-991.48901	
1768	17.670	-785.66479	-18.38087	-646.99933	787.14832	-13.58366	-640.08527	-702.68085	21.78826	490.21939	714.75867	29.64665	576.12494	-2.58382	707.57733	-991.93549	
1769	17.680	-784.69403	-18.69867	-647.07776	787.94800	-13.78761	-640.00360	-701.70477	21.85685	490.06989	715.81067	29.74814	576.06018	-1.56260	707.08148	-992.15039	
1770	17.690	-783.63116	-19.10292	-646.99957	789.08533	-13.94589	-640.01886	-700.65656	22.00549	490.10376	716.81342	29.80006	575.97546	-0.15728	706.54047	-992.50476	
1771	17.700	-782.65710	-19.38977	-647.01233	790.20459	-14.22021	-640.17566	-699.75146	22.19959	490.05963	717.61664	29.94097	575.91925	0.57341	706.18585	-992.69690	
1772	17.710	-781.64948	-19.43703	-647.06854	790.88635	-14.39740	-640.29163	-698.86029	22.26336	489.99075	718.55865	30.05539	575.99524	1.41487	706.01202	-992.97394	
1773	17.720	-781.03491	-19.22495	-647.20892	791.90887	-14.58633	-640.23480	-697.84497	22.56381	489.93860	719.73834	30.41476	575.93842	2.50625	705.70038	-993.42004	
1774	17.730	-779.89276	-19.92751	-647.16479	792.92139	-14.85645	-640.25739	-696.93549	22.80773	489.84412	720.67847	30.72776	575.72101	3.16421	705.41840	-993.61957	
1775	17.740	-778.72137	-20.13532	-647.26367	794.01855	-15.14559	-640.28137	-695.93835	22.88043	489.84653	721.69910	30.95658	575.64990	4.25110	705.00861	-993.84210	
1776	17.750	-778.06891	-20.11701	-647.33466	794.69794	-15.36830	-640.35284	-694.89246	23.08917	489.78519	722.64789	30.98915	575.69714	5.43529	704.65607	-993.98438	
1777	17.760	-776.94012	-20.40603	-647.42810	795.70691	-15.51158	-640.30017	-694.08484	23.19240	489.83643	723.44562	31.05334	575.50848	6.24197	704.36719	-994.19751	
1778	17.770	-776.17047	-20.41886	-647.26575	796.82300	-15.47665	-640.48358	-693.12354	23.23275	489.74155	724.49341	31.15541	575.40289	7.17474	704.17932	-994.42603	
1779	17.780	-774.58765	-20.89907	-647.43927	797.54572	-15.69126	-640.47333	-691.96490	23.40630	489.78741	725.56989	31.36035	575.59100	8.12763	703.96747	-994.66724	
1780	17.790	-773.93701	-20.87231	-647.47784	798.52454	-15.92374	-640.62402	-691.25201	23.45534	489.65747	726.52985	31.54793	575.46924	9.06990	703.76038	-994.89417	
1781	17.800	-772.95239	-21.10170	-647.48065	799.60577	-16.14450	-640.66437	-690.06769	23.51956	489.61255	726.34399	31.48694	575.54407	10.23032	703.54114	-994.88867	
1782	17.810	-771.99585	-21.34556	-647.41266	800.74170	-16.25031	-640.39227	-689.25793	23.56941	489.44638	727.69971	31.59835	575.63458	11.34251	703.29852	-995.13940	
1783	17.820	-770.88928	-21.46342	-647.46991	801.55829	-16.24733	-640.44885	-688.18835	23.61995	489.54190	728.73645	31.69010	575.55444	12.08911	703.12561	-995.22186	
1784	17.830	-770.22681	-21.24321	-647.61884	802.49786	-16.48256	-640.60248	-687.13776	23.74066	489.48645	729.83008	31.92894	575.29309	12.93418	702.89539	-995.38458	
1785	17.840	-769.56812	-21.23651	-647.39673	803.67212	-16.54284	-640.57574	-686.28784	23.78333	489.49500	730.86292	31.97683	575.23846	13.99973	702.69391	-995.71661	
1786	17.850	-767.90637	-21.84734	-647.56744	804.55219	-16.49707	-640.70453	-685.44543	23.86696	489.46533	731.94971	32.00922	575.12091	15.06014	702.49432	-995.71729	
1787	17.860	-767.26672	-21.82772	-647.72430	805.14563	-16.59102	-640.83533	-684.29486	23.88589	489.44852	733.12823	32.06995	575.09033	16.03298	702.27527	-995.87299	
1788	17.870	-766.43134	-21.65278	-647.66046	806.61255	-16.79011	-640.73926	-683.44830	23.99811	489.47006	734.23669	32.15076	575.02875	16.86650	702.23425	-996.08228	
1789	17.880	-765.45862	-21.78461	-647.66949	807.45148	-17.00847	-640.63898	-682.33734	23.98549	489.45789	735.13470	32.24880	574.98425	17.72531	702.21210	-996.42566	
1790	17.890	-764.10370	-21.97421	-647.66962	808.16547	-17.01116	-640.72382	-681.34448	24.08847	489.46463	735.97943	32.20871	574.91315	18.49059	702.24695	-996.46356	
1791	17.900	-763.29675	-22.05452	-647.77527	809.47394	-17.01823	-640.69098	-680.50818	24.13306	489.49570	736.92938	32.31831	574.87964	19.80075	702.14636	-996.23016	
1792	17.910	-762.71326	-21.83267	-647.67767	809.95081	-17.03963	-640.82477	-679.49072	24.16790	489.61563	737.95386	32.33024	575.09113	20.80638	702.15515	-996.29895	
